# xmcd
#
# Track frame offsets:
#	150
#	23271
#	42204
#	58989
#	70629
#	87354
#	102098
#	124377
#	139673
#
# Disc length: 2154 seconds
#
# Revision: 1
# Processed by: cddbd v1.5.2PL0 Copyright (c) Steve Scherf et al.
# Submitted via: audiograbber 1.83.01
#
DISCID=72086809
DTITLE=Queen Laurin - groove it down
DYEAR=2008
DGENRE=Minimal Rhythm and Roll
TTITLE0=On the Road Again
TTITLE1=Loving Cup
TTITLE2=Just Got Paid
TTITLE3=Alabama Song
TTITLE4=Soft Parade
TTITLE5=Never Been to Spain
TTITLE6=Locomotive Breath
TTITLE7=World in a Jug
TTITLE8=Can't You See (St. Valentine's Edition)
EXTD=Produced by Lukas Flarer at Soundcontrol Studios December 2007
EXTT0=
EXTT1=
EXTT2=
EXTT3=
EXTT4=
EXTT5=
EXTT6=
EXTT7=
EXTT8=
PLAYORDER=
